<?xml version="1.0" encoding="utf-8"?>
<!-- Generator: Adobe Illustrator 26.0.3, SVG Export Plug-In . SVG Version: 6.00 Build 0)  -->
<svg version="1.1" id="root" xmlns="http://www.w3.org/2000/svg" xmlns:xlink="http://www.w3.org/1999/xlink" x="0px" y="0px"
	 viewBox="0 0 117 67.5" style="enable-background:new 0 0 117 67.5;" xml:space="preserve">
<style type="text/css">
	.st0{fill:#1D7300;stroke:#FFFFFF;stroke-width:2;}
</style>
<symbol  id="a" viewBox="-11.7 -33.8 23.3 67.6">
	<path class="st0" d="M0.5-32.5c-0.1-0.3-0.4-0.4-0.7-0.3c-0.1,0.1-0.2,0.1-0.3,0.3c-3.8,6.1-11,19.6-10.1,37.1
		C-9.9,17.2-5,32.9,0.2,32.8S10,17.1,10.6,4.6C11.4-12.8,4.3-26.4,0.5-32.5z"/>
</symbol>
<g>
	<defs>
		
			<rect id="SVGID_1_" x="50.8" y="42.9" transform="matrix(0.9832 -0.1825 0.1825 0.9832 -8.5067 16.274)" width="66.7" height="23"/>
	</defs>
	<clipPath id="SVGID_00000179609696026142932950000014476794524922370176_">
		<use xlink:href="#SVGID_1_"  style="overflow:visible;"/>
	</clipPath>
	
		<g transform="matrix(1 -1.490116e-08 1.490116e-08 1 0 0)" style="clip-path:url(#SVGID_00000179609696026142932950000014476794524922370176_);">
		
			<use xlink:href="#a"  width="23.3" height="67.6" id="_x37_" x="-11.7" y="-33.8" transform="matrix(0.18 0.97 -0.97 0.18 84.2194 54.408)" style="overflow:visible;"/>
	</g>
</g>
<g>
	<defs>
		
			<rect id="SVGID_00000094609364586804821970000006317190416997983375_" x="21.3" y="21.7" transform="matrix(0.1825 -0.9832 0.9832 0.1825 -27.2955 77.2356)" width="23" height="66.7"/>
	</defs>
	<clipPath id="SVGID_00000016063662336420939290000016039482180430969783_">
		<use xlink:href="#SVGID_00000094609364586804821970000006317190416997983375_"  style="overflow:visible;"/>
	</clipPath>
	
		<g transform="matrix(1 1.490116e-08 -1.490116e-08 1 0 0)" style="clip-path:url(#SVGID_00000016063662336420939290000016039482180430969783_);enable-background:new    ;">
		
			<use xlink:href="#a"  width="23.3" height="67.6" id="_x36_" x="-11.7" y="-33.8" transform="matrix(0.18 -0.97 0.97 0.18 32.7852 54.9864)" style="overflow:visible;"/>
	</g>
</g>
<g>
	<defs>
		<polygon id="SVGID_00000109723641816915684830000006524999108887482040_" points="103.7,19 115.4,38.8 57.9,73.3 46.3,53.5 		"/>
	</defs>
	<clipPath id="SVGID_00000078034616603519996730000009278562233875743890_">
		<use xlink:href="#SVGID_00000109723641816915684830000006524999108887482040_"  style="overflow:visible;"/>
	</clipPath>
	
		<g transform="matrix(1 2.980232e-08 -2.980232e-08 1 0 0)" style="clip-path:url(#SVGID_00000078034616603519996730000009278562233875743890_);enable-background:new    ;">
		
			<use xlink:href="#a"  width="23.3" height="67.6" id="_x35_" x="-11.7" y="-33.8" transform="matrix(0.5 0.85 -0.85 0.51 80.8474 46.1757)" style="overflow:visible;"/>
	</g>
</g>
<g>
	<defs>
		<polygon id="SVGID_00000077304637465433692780000018285436670374490512_" points="1.5,39 13.1,19.2 70.6,53.7 58.9,73.5 		"/>
	</defs>
	<clipPath id="SVGID_00000036940100174595231260000005567967607376136103_">
		<use xlink:href="#SVGID_00000077304637465433692780000018285436670374490512_"  style="overflow:visible;"/>
	</clipPath>
	
		<g transform="matrix(1 -2.980232e-08 2.980232e-08 1 0 0)" style="clip-path:url(#SVGID_00000036940100174595231260000005567967607376136103_);enable-background:new    ;">
		
			<use xlink:href="#a"  width="23.3" height="67.6" id="_x34_" x="-11.7" y="-33.8" transform="matrix(0.5 -0.85 0.85 0.51 36.037 46.2838)" style="overflow:visible;"/>
	</g>
</g>
<g>
	<defs>
		
			<rect id="SVGID_00000130639727037549755700000001257721955757516726_" x="32.6" y="4.3" transform="matrix(0.8352 -0.5499 0.5499 0.8352 -13.499 30.4971)" width="23.1" height="66.9"/>
	</defs>
	<clipPath id="SVGID_00000062188096049994359440000013307841099783831467_">
		<use xlink:href="#SVGID_00000130639727037549755700000001257721955757516726_"  style="overflow:visible;"/>
	</clipPath>
	
		<g transform="matrix(1 0 0 1 3.814697e-06 0)" style="clip-path:url(#SVGID_00000062188096049994359440000013307841099783831467_);enable-background:new    ;">
		
			<use xlink:href="#a"  width="23.3" height="67.6" id="_x33_" x="-11.7" y="-33.8" transform="matrix(0.8269 -0.5444 0.5444 0.8269 44.1672 37.7363)" style="overflow:visible;"/>
	</g>
</g>
<g>
	<defs>
		
			<rect id="SVGID_00000037680487618782802330000016156831368443569845_" x="39.5" y="26.3" transform="matrix(0.5578 -0.83 0.83 0.5578 0.9079 77.3054)" width="66.9" height="23.1"/>
	</defs>
	<clipPath id="SVGID_00000103975450965937676230000016828050867396858292_">
		<use xlink:href="#SVGID_00000037680487618782802330000016156831368443569845_"  style="overflow:visible;"/>
	</clipPath>
	<g style="clip-path:url(#SVGID_00000103975450965937676230000016828050867396858292_);enable-background:new    ;">
		
			<use xlink:href="#a"  width="23.3" height="67.6" id="_x32_" x="-11.7" y="-33.8" transform="matrix(0.8217 0.5522 -0.5522 0.8217 73.0445 37.809)" style="overflow:visible;"/>
	</g>
</g>
<g>
	<defs>
		<rect id="SVGID_00000108287671676431085930000010480413938024658606_" x="46.9" y="0" width="23.1" height="66.9"/>
	</defs>
	<clipPath id="SVGID_00000183219761714878907190000014150566924791728291_">
		<use xlink:href="#SVGID_00000108287671676431085930000010480413938024658606_"  style="overflow:visible;"/>
	</clipPath>
	
		<g transform="matrix(1 0 0 1 0 0)" style="clip-path:url(#SVGID_00000183219761714878907190000014150566924791728291_);enable-background:new    ;">
		
			<use xlink:href="#a"  width="23.3" height="67.6" id="_x31_" x="-11.7" y="-33.8" transform="matrix(0.99 0 0 0.99 58.4883 33.4077)" style="overflow:visible;"/>
	</g>
</g>
</svg>
