<?xml version="1.0" encoding="UTF-8"?><svg id="a" xmlns="http://www.w3.org/2000/svg"
  xmlns:xlink="http://www.w3.org/1999/xlink" viewBox="0 0 87.88 101.35">
  <defs>
   <linearGradient id="b" x1="-3.51" y1="41.42" x2="79.53" y2="13.27" gradientTransform="matrix(1, 0, 0, 1, 0, 0)"
      gradientUnits="userSpaceOnUse">
      <stop offset="0" stop-color="#d4145a" />
      <stop offset=".94" stop-color="#1b1464" />
    </linearGradient>
    <linearGradient id="c" x1="24.2" y1="50.82" x2="97.6" y2="50.82" gradientTransform="matrix(1, 0, 0, 1, 0, 0)"
      gradientUnits="userSpaceOnUse">
      <stop offset="0" stop-color="#d4145a" />
      <stop offset=".24" stop-color="#75145f" />
      <stop offset=".42" stop-color="#341462" />
      <stop offset=".5" stop-color="#1b1464" />
    </linearGradient>
    <linearGradient id="d" x1="0" y1="74.46" x2="87.88" y2="74.46" gradientTransform="matrix(1, 0, 0, 1, 0, 0)"
      gradientUnits="userSpaceOnUse">
      <stop offset=".04" stop-color="#d4145a" />
      <stop offset=".39" stop-color="#75145f" />
      <stop offset=".66" stop-color="#341462" />
      <stop offset=".78" stop-color="#1b1464" />
    </linearGradient>
  </defs>
  <path
    d="M74.08,40.44c-1.54-1.38-3.23-2.73-4.75-4.26-13.12-13.23-34.26-13.3-47.41-.14-5.49,5.49-11.03,10.93-16.51,16.43-1.07,1.07-2.2,1.7-3.69,1.07-1.46-.62-1.69-1.86-1.68-3.29,.03-7.04,.03-14.07,0-21.11-.01-2.76,1.46-5.3,3.85-6.67C16.39,15.32,28.89,8.18,41.39,1.03c2.4-1.37,5.34-1.37,7.73,0,12.13,6.96,24.26,13.91,36.39,20.87,2.8,1.6,3.12,4.28,.8,6.56-4.16,4.08-8.33,8.16-12.23,11.97Z"
    fill="url(#b)" />
  <path
    d="M24.2,50.84c4.26-6.9,10.17-10.99,18.37-11.21,8.13-.21,15.91,4.39,19.32,11.31-4.19,6.77-10.11,10.88-18.3,11.06-8.61,.19-14.86-3.95-19.39-11.17Zm18.88-6.02c-3.38,.02-6.07,2.75-6,6.14,.06,3.03,2.44,5.58,5.45,5.87,3.58,.35,6.63-2.55,6.61-6.06-.02-3.29-2.74-5.97-6.06-5.95Z"
    fill="url(#c)" />
  <path
    d="M13.78,60.91c1.55,1.38,3.24,2.73,4.75,4.26,13.13,13.23,34.28,13.3,47.45,.14,5.49-5.49,11.04-10.93,16.53-16.43,1.07-1.07,2.2-1.7,3.69-1.07,1.46,.62,1.69,1.86,1.68,3.29-.03,7.04-.03,14.09,0,21.13,.01,2.98-1.27,5.17-3.85,6.65-12.51,7.14-25.02,14.29-37.53,21.44-2.4,1.37-5.34,1.37-7.74,0-12.14-6.96-24.28-13.91-36.42-20.87-2.8-1.6-3.12-4.28-.8-6.56,4.16-4.08,8.34-8.16,12.24-11.97Z"
    fill="url(#d)" />
</svg>