<svg xmlns="http://www.w3.org/2000/svg" xmlns:xlink="http://www.w3.org/1999/xlink" viewBox="0 0 536.06 163.25"><defs><symbol id="a" viewBox="0 0 63.81 190.26"><path d="M33.26,2.39a1.46,1.46,0,0,0-2.68,0C19.76,19.64-.89,58.37,1.73,108.26c1.89,35.93,16,80.62,30.61,80.5s28.07-45,29.78-80.5C64.51,58.47,44.14,19.87,33.26,2.39Z" fill="#8c1e76" stroke="#fff" stroke-width="3"/></symbol></defs><path d="M815,267.06c-64,18.39-140.61,29.9-324.64-3.7-61.67-11.26-133-15.44-194.81.59,49.12-26.5,148.65-22.44,223-9.84C627.84,272.6,726.84,283.26,815,267.06Z" transform="translate(-295.56 -141.71)" fill="#8c1e76"/><path d="M461.46,303c-5,0-10.15-.13-15.31-.38a342.42,342.42,0,0,1-96.93-19.29l1-3.85a457.28,457.28,0,0,0,84.13,7.93A438.68,438.68,0,0,0,493,283.44c29.58-4,46.65-9.35,66.41-15.54,11.65-3.66,23.7-7.43,39.47-11.28a531,531,0,0,1,198.85-8.88c13.83,2.09,29.73,5.36,31.31,7l.59.61v.9a2.13,2.13,0,0,1-2.31,2c-.8,0-2.31-.21-5.67-.68a485.52,485.52,0,0,0-70.7-5,536.9,536.9,0,0,0-66.23,4.14c-47.27,5.88-81.64,16.38-112,25.64C536.5,293.4,505.19,303,461.46,303Z" transform="translate(-295.56 -141.71)" fill="#c1c1c1"/><path d="M721.55,244.25c63.07,0,106.1,10.94,106.07,11.93,0,.05-.11.07-.31.07-3.24,0-31.7-5.71-76.36-5.71a540,540,0,0,0-66.48,4.15c-102.29,12.73-142,46.27-223,46.27q-7.35,0-15.2-.38a341.34,341.34,0,0,1-96.37-19.17,457.3,457.3,0,0,0,84.5,8,438.16,438.16,0,0,0,58.88-3.95c47.33-6.4,63.81-16.55,106.09-26.85a518.64,518.64,0,0,1,122.2-14.32m0-4A520.64,520.64,0,0,0,598.4,254.68c-15.83,3.86-27.91,7.65-39.6,11.31-19.67,6.17-36.67,11.49-66.08,15.47a436.3,436.3,0,0,1-58.34,3.91,455,455,0,0,1-83.76-7.89l-2.07,7.7a344.32,344.32,0,0,0,97.5,19.39c5.2.26,10.38.39,15.4.39,44,0,75.48-9.6,111.88-20.72C603.57,275,637.86,264.52,685,258.66a536.92,536.92,0,0,1,66-4.12,482.71,482.71,0,0,1,70.41,5,55.61,55.61,0,0,0,5.95.7,4.09,4.09,0,0,0,4.31-3.92,4,4,0,0,0-1.15-3c-.73-.76-1.43-1.48-10.33-3.51-4.36-1-11.74-2.51-22.12-4.08a518.93,518.93,0,0,0-76.47-5.51Z" transform="translate(-295.56 -141.71)" fill="#fff"/><use width="63.81" height="190.26" transform="matrix(0.03, 0.25, -0.26, 0.05, 175.91, 72.31)" xlink:href="#a"/><use width="63.81" height="190.26" transform="matrix(0.13, 0.24, -0.25, 0.14, 169.04, 55.16)" xlink:href="#a"/><use width="63.81" height="190.26" transform="translate(147.44 38.29) rotate(35.26) scale(0.3)" xlink:href="#a"/><use width="63.81" height="190.26" transform="matrix(-0.03, 0.25, 0.26, 0.05, 70.96, 72.31)" xlink:href="#a"/><use width="63.81" height="190.26" transform="matrix(-0.13, 0.24, 0.25, 0.14, 77.01, 55.16)" xlink:href="#a"/><use width="63.81" height="190.26" transform="matrix(-0.24, 0.17, 0.17, 0.24, 99.44, 38.29)" xlink:href="#a"/><use width="63.81" height="190.26" transform="translate(113.33 32.96) scale(0.32 0.32)" xlink:href="#a"/><path d="M414.49,275.75c-33.08,0-61.47-22.93-67.5-54.53-6.35-33.31,13.92-66.47,47.15-77.13l1.87,4.62c-24.42,12-38,38.44-33.06,64.39,5.29,27.74,30.27,47.89,59.39,47.89h0a63.08,63.08,0,0,0,11.92-1.14,62,62,0,0,0,38.93-24.64l4.25,2.61A69.87,69.87,0,0,1,428,274.47,72.35,72.35,0,0,1,414.49,275.75Z" transform="translate(-295.56 -141.71)" fill="#5e5e5e"/><path d="M394.91,146.47c-24.93,12.21-39.72,39.31-34.42,67.09,5.62,29.49,32,49.93,61.85,49.93a65.7,65.7,0,0,0,12.4-1.18,64.71,64.71,0,0,0,40.49-25.63A67.72,67.72,0,0,1,427.52,272a69.14,69.14,0,0,1-13,1.24c-31.37,0-59.13-21.49-65-52.5-6.2-32.5,13.77-64.12,45.46-74.28m-1.53-4.76c-34.44,11-55.43,45.43-48.84,80,6.25,32.77,35.67,56.56,69.95,56.56a74.85,74.85,0,0,0,14-1.33,72.35,72.35,0,0,0,51.22-38l-8.51-5.22A59.55,59.55,0,0,1,433.8,257.4a61.52,61.52,0,0,1-11.46,1.09c-27.92,0-51.87-19.29-56.94-45.86-4.74-24.84,8.3-50.2,31.71-61.67l-3.73-9.25Z" transform="translate(-295.56 -141.71)" fill="#fff"/><path d="M367.5,181.5c26.66-42.5,91.69-36.4,112,13C472.64,138.49,394.49,123.15,367.5,181.5Z" transform="translate(-295.56 -141.71)" fill="#efefef"/></svg>