<svg xmlns="http://www.w3.org/2000/svg" xmlns:xlink="http://www.w3.org/1999/xlink" viewBox="0 0 117.02 67.51"><defs><symbol id="a" viewBox="0 0 23.31 67.62"><path d="M12.13,1.31a.51.51,0,0,0-.94,0C7.4,7.36.16,20.93,1.08,38.41,1.74,51,6.69,66.66,11.81,66.62s9.83-15.76,10.43-28.21C23.08,21,15.94,7.44,12.13,1.31Z" fill="#8c1e76" stroke="#fff" stroke-width="2"/></symbol></defs><use width="23.31" height="67.62" transform="matrix(0.18, 0.97, -0.97, 0.18, 114.85, 37.06)" xlink:href="#a"/><use width="23.31" height="67.62" transform="matrix(0.18, -0.97, 0.97, 0.18, -2.03, 60.19)" xlink:href="#a"/><use width="23.31" height="67.62" transform="matrix(0.5, 0.85, -0.85, 0.51, 103.71, 19.09)" xlink:href="#a"/><use width="23.31" height="67.62" transform="matrix(0.5, -0.85, 0.85, 0.51, 1.55, 38.96)" xlink:href="#a"/><use width="23.31" height="67.62" transform="translate(16.19 16.17) rotate(-33.36) scale(0.99 0.99)" xlink:href="#a"/><use width="23.31" height="67.62" transform="translate(82.12 3.67) rotate(33.9) scale(0.99 0.99)" xlink:href="#a"/><use width="23.31" height="67.62" transform="translate(46.98 0.01) scale(0.99 0.99)" xlink:href="#a"/></svg>