<?xml version="1.0" encoding="utf-8"?>
<!-- Generator: Adobe Illustrator 24.2.1, SVG Export Plug-In . SVG Version: 6.00 Build 0)  -->
<svg version="1.1" id="Ebene_1" xmlns="http://www.w3.org/2000/svg" xmlns:xlink="http://www.w3.org/1999/xlink" x="0px" y="0px"
	 viewBox="0 0 149.2 86.6" style="enable-background:new 0 0 149.2 86.6;" xml:space="preserve">
<style type="text/css">
	.st0{fill:#8C1E76;stroke:#FFFFFF;stroke-width:6;}
</style>
<symbol  id="a" viewBox="-33.4 -96.6 66.8 193.3">
	<path class="st0" d="M1.4-92.7c-0.3-0.7-1.2-1.1-1.9-0.8c-0.3,0.1-0.6,0.4-0.8,0.8c-10.8,17.2-31.5,56-28.8,105.9
		c1.9,35.9,16,80.6,30.6,80.5s28.1-45,29.8-80.5C32.6-36.7,12.2-75.3,1.4-92.7z"/>
</symbol>
<g>
	<defs>
		<polygon id="SVGID_1_" points="146.8,55 149.4,77.3 80.9,90.7 78.3,68.3 		"/>
	</defs>
	<clipPath id="SVGID_2_">
		<use xlink:href="#SVGID_1_"  style="overflow:visible;"/>
	</clipPath>
	<g transform="matrix(1 0 -7.450581e-09 1 -7.629395e-06 0)" style="clip-path:url(#SVGID_2_);">
		
			<use xlink:href="#a"  width="66.8" height="193.3" x="-33.4" y="-96.6" transform="matrix(4.000000e-02 0.35 -0.36 7.000000e-02 113.8221 72.5148)" style="overflow:visible;"/>
	</g>
</g>
<g>
	<defs>
		<polygon id="SVGID_3_" points="137.4,31.4 148.9,51.8 82.3,88 70.8,67.5 		"/>
	</defs>
	<clipPath id="SVGID_4_">
		<use xlink:href="#SVGID_3_"  style="overflow:visible;"/>
	</clipPath>
	<g transform="matrix(1 0 2.980232e-08 1 0 7.629395e-06)" style="clip-path:url(#SVGID_4_);">
		
			<use xlink:href="#a"  width="66.8" height="193.3" id="XMLID_1_" x="-33.4" y="-96.6" transform="matrix(0.18 0.32 -0.35 0.19 109.6556 59.4005)" style="overflow:visible;"/>
	</g>
</g>
<g>
	<defs>
		
			<rect id="SVGID_5_" x="58" y="34.1" transform="matrix(0.5718 -0.8204 0.8204 0.5718 2.7497 99.0703)" width="76.5" height="25.7"/>
	</defs>
	<clipPath id="SVGID_6_">
		<use xlink:href="#SVGID_5_"  style="overflow:visible;"/>
	</clipPath>
	<g transform="matrix(1 2.980232e-08 -2.980232e-08 1 7.629395e-06 3.814697e-06)" style="clip-path:url(#SVGID_6_);">
		
			<use xlink:href="#a"  width="66.8" height="193.3" x="-33.4" y="-96.6" transform="matrix(0.33 0.23 -0.23 0.33 95.9841 46.698)" style="overflow:visible;"/>
	</g>
</g>
<g>
	<defs>
		<polygon id="SVGID_7_" points="2.4,55 -0.2,77.3 68.3,90.7 70.9,68.3 		"/>
	</defs>
	<clipPath id="SVGID_8_">
		<use xlink:href="#SVGID_7_"  style="overflow:visible;"/>
	</clipPath>
	<g transform="matrix(1 0 7.450581e-09 1 0 0)" style="clip-path:url(#SVGID_8_);">
		
			<use xlink:href="#a"  width="66.8" height="193.3" x="-33.4" y="-96.6" transform="matrix(-4.000000e-02 0.35 0.36 7.000000e-02 35.3779 72.5148)" style="overflow:visible;"/>
	</g>
</g>
<g>
	<defs>
		<polygon id="SVGID_9_" points="10.7,31.4 -0.8,51.8 65.8,88 77.3,67.5 		"/>
	</defs>
	<clipPath id="SVGID_10_">
		<use xlink:href="#SVGID_9_"  style="overflow:visible;"/>
	</clipPath>
	<g transform="matrix(1 0 -2.980232e-08 1 3.814697e-06 0)" style="clip-path:url(#SVGID_10_);">
		
			<use xlink:href="#a"  width="66.8" height="193.3" x="-33.4" y="-96.6" transform="matrix(-0.18 0.32 0.35 0.19 38.4144 59.4005)" style="overflow:visible;"/>
	</g>
</g>
<g>
	<defs>
		
			<rect id="SVGID_11_" x="40.1" y="8.6" transform="matrix(0.8204 -0.5718 0.5718 0.8204 -17.3147 38.6778)" width="25.7" height="76.5"/>
	</defs>
	<clipPath id="SVGID_12_">
		<use xlink:href="#SVGID_11_"  style="overflow:visible;"/>
	</clipPath>
	<g transform="matrix(1 -2.980232e-08 2.980232e-08 1 3.814697e-06 0)" style="clip-path:url(#SVGID_12_);">
		
			<use xlink:href="#a"  width="66.8" height="193.3" x="-33.4" y="-96.6" transform="matrix(-0.33 0.23 0.23 0.33 53.2059 46.698)" style="overflow:visible;"/>
	</g>
</g>
<g>
	<defs>
		<rect id="SVGID_13_" x="60.7" y="0.8" width="28.7" height="83.7"/>
	</defs>
	<clipPath id="SVGID_14_">
		<use xlink:href="#SVGID_13_"  style="overflow:visible;"/>
	</clipPath>
	<g style="clip-path:url(#SVGID_14_);">
		
			<use xlink:href="#a"  width="66.8" height="193.3" x="-33.4" y="-96.6" transform="matrix(0.45 0 0 0.44 74.6469 42.6993)" style="overflow:visible;"/>
	</g>
</g>
</svg>
