<svg xmlns="http://www.w3.org/2000/svg" viewBox="0 0 391.76 92.66"><path d="M85.66,215.91v12h-7V193.81H91.94a15.35,15.35,0,0,1,6.76,1.4,10.36,10.36,0,0,1,4.49,4,11.09,11.09,0,0,1,1.57,5.89,9.78,9.78,0,0,1-3.43,7.91q-3.43,2.9-9.51,2.9Zm0-5.7h6.28a6.18,6.18,0,0,0,4.25-1.31,4.78,4.78,0,0,0,1.47-3.75,5.64,5.64,0,0,0-1.48-4.06,5.5,5.5,0,0,0-4.08-1.59H85.66Z" transform="translate(-76.4 -193.34)" fill="#4d4d4d"/><path d="M137.36,227.93h-7V213.31H116.62v14.62h-7V193.81h7v13.82h13.71V193.81h7Z" transform="translate(-76.4 -193.34)" fill="#4d4d4d"/><path d="M154.61,209.18l7.1-15.37h7.69l-11.2,21.75v12.37h-7.15V215.56l-11.2-21.75h7.71Z" transform="translate(-76.4 -193.34)" fill="#4d4d4d"/><path d="M189.84,219a3.6,3.6,0,0,0-1.41-3.06,18.33,18.33,0,0,0-5.06-2.25,36.37,36.37,0,0,1-5.79-2.33q-5.81-3.15-5.81-8.46a8.25,8.25,0,0,1,1.56-4.94,10.19,10.19,0,0,1,4.47-3.38,16.75,16.75,0,0,1,6.56-1.22,15.39,15.39,0,0,1,6.51,1.32,10.3,10.3,0,0,1,4.44,3.74,9.74,9.74,0,0,1,1.58,5.48h-7a4.61,4.61,0,0,0-1.47-3.64,6.07,6.07,0,0,0-4.15-1.3,6.46,6.46,0,0,0-4,1.09,3.43,3.43,0,0,0-1.43,2.87,3.29,3.29,0,0,0,1.68,2.79,18.94,18.94,0,0,0,4.93,2.11q6,1.8,8.74,4.47a8.92,8.92,0,0,1,2.74,6.66,8.2,8.2,0,0,1-3.35,6.95q-3.34,2.52-9,2.52a17.39,17.39,0,0,1-7.17-1.44,11.4,11.4,0,0,1-4.94-4,10.13,10.13,0,0,1-1.7-5.81h7.06q0,5.64,6.75,5.64a6.54,6.54,0,0,0,3.91-1A3.29,3.29,0,0,0,189.84,219Z" transform="translate(-76.4 -193.34)" fill="#4d4d4d"/><path d="M209.13,227.93h-7V193.81h7Z" transform="translate(-76.4 -193.34)" fill="#4d4d4d"/><path d="M243.68,211.64a20.58,20.58,0,0,1-1.79,8.84,13.39,13.39,0,0,1-5.09,5.86,15.08,15.08,0,0,1-15.18,0,13.57,13.57,0,0,1-5.16-5.82,20.24,20.24,0,0,1-1.85-8.71v-1.69a20.48,20.48,0,0,1,1.82-8.87,13.5,13.5,0,0,1,5.13-5.88,15.06,15.06,0,0,1,15.17,0,13.5,13.5,0,0,1,5.13,5.88,20.42,20.42,0,0,1,1.82,8.85Zm-7.13-1.55q0-5.35-1.92-8.15a6.8,6.8,0,0,0-10.95,0q-1.92,2.76-1.94,8.08v1.66q0,5.24,1.92,8.11a6.74,6.74,0,0,0,11,.11c1.26-1.86,1.91-4.55,1.92-8.1Z" transform="translate(-76.4 -193.34)" fill="#4d4d4d"/><path d="M272.48,199.5H262v28.43h-7V199.5H244.68v-5.69h27.8Z" transform="translate(-76.4 -193.34)" fill="#4d4d4d"/><path d="M304.26,227.93h-7V213.31H283.52v14.62h-7V193.81h7v13.82h13.71V193.81h7Z" transform="translate(-76.4 -193.34)" fill="#4d4d4d"/><path d="M330.93,213.14h-13.5v9.14h15.85v5.65H310.4V193.81h22.83v5.69h-15.8v8.13h13.5Z" transform="translate(-76.4 -193.34)" fill="#4d4d4d"/><path d="M350,215.44h-5.61v12.49h-7V193.81h12.68q6,0,9.33,2.69a9.31,9.31,0,0,1,3.28,7.62,9.54,9.54,0,0,1-6.09,9.54L364,227.6v.33h-7.55Zm-5.61-5.7h5.68a5.85,5.85,0,0,0,4.1-1.34,4.82,4.82,0,0,0,1.45-3.72,5.19,5.19,0,0,0-1.37-3.8,5.71,5.71,0,0,0-4.21-1.38h-5.65Z" transform="translate(-76.4 -193.34)" fill="#4d4d4d"/><path d="M387.3,220.9H375l-2.34,7h-7.48l12.71-34.12h6.51l12.77,34.12h-7.47Zm-10.43-5.7h8.53l-4.29-12.77Z" transform="translate(-76.4 -193.34)" fill="#4d4d4d"/><path d="M407.36,215.91v12h-7V193.81h13.31a15.4,15.4,0,0,1,6.77,1.4,10.33,10.33,0,0,1,4.48,4,11.09,11.09,0,0,1,1.57,5.89A9.78,9.78,0,0,1,423,213q-3.43,2.9-9.5,2.9Zm0-5.7h6.28a6.22,6.22,0,0,0,4.26-1.31,4.77,4.77,0,0,0,1.46-3.75,5.67,5.67,0,0,0-1.47-4.06,5.53,5.53,0,0,0-4.08-1.59h-6.45Z" transform="translate(-76.4 -193.34)" fill="#4d4d4d"/><path d="M438.77,227.93h-7V193.81h7Z" transform="translate(-76.4 -193.34)" fill="#4d4d4d"/><path d="M465.82,213.14h-13.5v9.14h15.84v5.65H445.29V193.81h22.82v5.69H452.32v8.13h13.5Z" transform="translate(-76.4 -193.34)" fill="#4d4d4d"/><path d="M89.25,282.2l.68,2.06.67-2.06,11.47-30.79h1.38L90.7,285.53H89.15L76.4,251.41h1.38Z" transform="translate(-76.4 -193.34)" fill="#4d4d4d"/><path d="M107.93,252.25a1.29,1.29,0,0,1,.37-.93,1.24,1.24,0,0,1,.91-.38,1.3,1.3,0,0,1,.93.38,1.27,1.27,0,0,1,.39.93,1.21,1.21,0,0,1-.39.91,1.3,1.3,0,0,1-.93.38,1.28,1.28,0,0,1-1.28-1.29Zm1.92,33.28h-1.27V260.17h1.27Z" transform="translate(-76.4 -193.34)" fill="#4d4d4d"/><path d="M117,272.59q0-6.06,2.55-9.48a8.29,8.29,0,0,1,7-3.41,9.78,9.78,0,0,1,5.05,1.29,9.53,9.53,0,0,1,3.55,3.84v-15.3h1.27v36h-1.27v-4a8.9,8.9,0,0,1-3.54,3.34,10.91,10.91,0,0,1-5.11,1.18,8.18,8.18,0,0,1-7-3.49Q117,279,117,272.92Zm1.31.49q0,5.4,2.13,8.52a6.89,6.89,0,0,0,6,3.13,9.88,9.88,0,0,0,5.36-1.39,8.26,8.26,0,0,0,3.31-4.09V267.37Q133,261,126.53,261a7,7,0,0,0-6,3.07C119,266.08,118.31,269.1,118.31,273.08Z" transform="translate(-76.4 -193.34)" fill="#4d4d4d"/><path d="M153.56,286a10.21,10.21,0,0,1-5.64-1.65,11.37,11.37,0,0,1-4-4.54,14,14,0,0,1-1.45-6.4v-1.05a14.82,14.82,0,0,1,1.4-6.45,11.23,11.23,0,0,1,3.87-4.57,9.51,9.51,0,0,1,5.37-1.64,8.87,8.87,0,0,1,6.94,3,11.5,11.5,0,0,1,2.69,7.94V272h-19v1.38a12.71,12.71,0,0,0,1.31,5.72,10.24,10.24,0,0,0,3.58,4.13,8.93,8.93,0,0,0,5,1.49,10.08,10.08,0,0,0,4.35-.85,8.79,8.79,0,0,0,3.17-2.62l.89.64A9.56,9.56,0,0,1,153.56,286Zm-.47-25a8.29,8.29,0,0,0-6.28,2.75,11.77,11.77,0,0,0-3,7h17.68v-.3a10.83,10.83,0,0,0-1.09-4.8,8.48,8.48,0,0,0-3-3.44A7.75,7.75,0,0,0,153.09,261Z" transform="translate(-76.4 -193.34)" fill="#4d4d4d"/><path d="M166.71,272.36a14.86,14.86,0,0,1,1.39-6.53,10.71,10.71,0,0,1,3.94-4.51,10.46,10.46,0,0,1,5.75-1.62,10.68,10.68,0,0,1,5.72,1.57,10.54,10.54,0,0,1,4,4.46,14.57,14.57,0,0,1,1.44,6.49v1.12a15,15,0,0,1-1.38,6.54,10.65,10.65,0,0,1-3.93,4.5,10.46,10.46,0,0,1-5.75,1.62,10.48,10.48,0,0,1-9.7-6.06,14.6,14.6,0,0,1-1.43-6.46Zm1.26,1a13.25,13.25,0,0,0,1.26,5.8,9.89,9.89,0,0,0,3.49,4.12,9.11,9.11,0,0,0,5.12,1.47,8.8,8.8,0,0,0,7.07-3.25,12.65,12.65,0,0,0,2.73-8.4v-.72a13.28,13.28,0,0,0-1.27-5.77,10,10,0,0,0-3.5-4.13,8.91,8.91,0,0,0-5.08-1.49,8.79,8.79,0,0,0-7.08,3.3,12.65,12.65,0,0,0-2.74,8.32Z" transform="translate(-76.4 -193.34)" fill="#4d4d4d"/><path d="M231.35,271a18.48,18.48,0,0,1-1.58,7.84,12.15,12.15,0,0,1-4.52,5.28A12.31,12.31,0,0,1,218.5,286a11.76,11.76,0,0,1-9.32-4.1c-2.38-2.74-3.57-6.42-3.57-11.07v-4.92a18.44,18.44,0,0,1,1.59-7.83,12,12,0,0,1,4.52-5.28,13.18,13.18,0,0,1,13.5,0,12.11,12.11,0,0,1,4.53,5.3,18.23,18.23,0,0,1,1.6,7.81Zm-1.27-5.15q0-6.19-3.14-9.93a11.44,11.44,0,0,0-16.9,0q-3.14,3.71-3.14,10.11v5a17.4,17.4,0,0,0,1.42,7.21,10.94,10.94,0,0,0,4,4.82,11.15,11.15,0,0,0,6.14,1.68A10.44,10.44,0,0,0,227,281q3.12-3.74,3.12-10.18Z" transform="translate(-76.4 -193.34)" fill="#4d4d4d"/><path d="M239.76,266.08a10.63,10.63,0,0,1,3.66-4.67,9,9,0,0,1,5.34-1.71q4.08,0,6.06,2.31t2,7v16.55h-1.26V269c0-2.71-.57-4.72-1.67-6s-2.82-1.95-5.2-1.95A7.85,7.85,0,0,0,243,263.3a11.8,11.8,0,0,0-3.25,6v16.23H238.5V260.17h1.26Z" transform="translate(-76.4 -193.34)" fill="#4d4d4d"/><path d="M266.34,285.53h-1.27v-36h1.27Z" transform="translate(-76.4 -193.34)" fill="#4d4d4d"/><path d="M274.31,252.25a1.29,1.29,0,0,1,.37-.93,1.31,1.31,0,0,1,2.23.93,1.21,1.21,0,0,1-.39.91,1.3,1.3,0,0,1-1.84,0A1.23,1.23,0,0,1,274.31,252.25Zm1.92,33.28H275V260.17h1.27Z" transform="translate(-76.4 -193.34)" fill="#4d4d4d"/><path d="M285.82,266.08a10.54,10.54,0,0,1,3.65-4.67,9,9,0,0,1,5.35-1.71c2.72,0,4.73.77,6.06,2.31s2,3.86,2,7v16.55h-1.27V269c0-2.71-.57-4.72-1.66-6s-2.83-1.95-5.2-1.95a7.87,7.87,0,0,0-5.69,2.33,11.78,11.78,0,0,0-3.24,6v16.23h-1.27V260.17h1.27Z" transform="translate(-76.4 -193.34)" fill="#4d4d4d"/><path d="M319.94,286a10.24,10.24,0,0,1-5.64-1.65,11.27,11.27,0,0,1-4-4.54,14,14,0,0,1-1.46-6.4v-1.05a14.69,14.69,0,0,1,1.41-6.45,11.15,11.15,0,0,1,3.87-4.57,9.5,9.5,0,0,1,5.36-1.64,8.87,8.87,0,0,1,6.94,3,11.46,11.46,0,0,1,2.7,7.94V272h-19v1.38a12.71,12.71,0,0,0,1.3,5.72,10.32,10.32,0,0,0,3.58,4.13,9,9,0,0,0,5,1.49,10.08,10.08,0,0,0,4.35-.85,8.79,8.79,0,0,0,3.17-2.62l.9.64A9.59,9.59,0,0,1,319.94,286Zm-.47-25a8.29,8.29,0,0,0-6.28,2.75,11.7,11.7,0,0,0-3,7h17.67v-.3a10.7,10.7,0,0,0-1.09-4.8,8.48,8.48,0,0,0-3-3.44A7.73,7.73,0,0,0,319.47,261Z" transform="translate(-76.4 -193.34)" fill="#4d4d4d"/></svg>