<svg id="root" xmlns="http://www.w3.org/2000/svg" xmlns:xlink="http://www.w3.org/1999/xlink" viewBox="0 0 117.16 67.74">
  <defs>
    <clipPath id="clip-path" transform="translate(0.07 0.1)">
      <rect x="50.81" y="42.9" width="66.7" height="23" transform="translate(-8.52 16.27) rotate(-10.52)" fill="none" />
    </clipPath>
    <clipPath id="clip-path-2" transform="translate(0.07 0.1)">
      <rect x="50.86" y="42.87" width="66.69" height="22.99" transform="translate(-8.5 16.28) rotate(-10.51)"
        fill="none" />
    </clipPath>
    <clipPath id="clip-path-3" transform="translate(0.07 0.1)">
      <rect x="21.32" y="21.68" width="23" height="66.7" transform="translate(-27.28 77.25) rotate(-79.48)"
        fill="none" />
    </clipPath>
    <clipPath id="clip-path-4" transform="translate(0.07 0.1)">
      <rect x="21.28" y="21.69" width="22.99" height="66.69" transform="translate(-27.32 77.22) rotate(-79.49)"
        fill="none" />
    </clipPath>
    <clipPath id="clip-path-5" transform="translate(0.07 0.1)">
      <polygon points="103.7 19 115.4 38.8 57.9 73.3 46.3 53.5 103.7 19" fill="none" />
    </clipPath>
    <clipPath id="clip-path-6" transform="translate(0.07 0.1)">
      <polygon points="103.73 18.99 115.38 38.8 57.92 73.27 46.27 53.47 103.73 18.99" fill="none" />
    </clipPath>
    <clipPath id="clip-path-7" transform="translate(0.07 0.1)">
      <polygon points="1.5 39 13.1 19.2 70.6 53.7 58.9 73.5 1.5 39" fill="none" />
    </clipPath>
    <clipPath id="clip-path-8" transform="translate(0.07 0.1)">
      <polygon points="1.46 38.99 13.11 19.19 70.57 53.66 58.92 73.47 1.46 38.99" fill="none" />
    </clipPath>
    <clipPath id="clip-path-9" transform="translate(0.07 0.1)">
      <rect x="32.58" y="4.3" width="23.1" height="66.9" transform="translate(-13.49 30.49) rotate(-33.36)"
        fill="none" />
    </clipPath>
    <clipPath id="clip-path-10" transform="translate(0.07 0.1)">
      <rect x="32.59" y="4.3" width="23.07" height="66.93" transform="translate(-13.5 30.49) rotate(-33.36)"
        fill="none" />
    </clipPath>
    <clipPath id="clip-path-11" transform="translate(0.07 0.1)">
      <rect x="39.56" y="26.32" width="66.9" height="23.1" transform="translate(0.86 77.35) rotate(-56.1)"
        fill="none" />
    </clipPath>
    <clipPath id="clip-path-12" transform="translate(0.07 0.1)">
      <rect x="39.54" y="26.25" width="66.92" height="23.07" transform="translate(0.93 77.3) rotate(-56.1)"
        fill="none" />
    </clipPath>
    <clipPath id="clip-path-13" transform="translate(0.07 0.1)">
      <rect x="46.9" width="23.1" height="66.9" fill="none" />
    </clipPath>
    <clipPath id="clip-path-14" transform="translate(0.07 0.1)">
      <rect x="46.91" y="-0.05" width="23.07" height="66.92" fill="none" />
    </clipPath>
    <symbol id="a" data-name="a" viewBox="0 0 23.34 67.64">
      <path
        d="M12.18,66.3a.52.52,0,0,1-.7.3c-.1-.1-.2-.1-.3-.3-3.8-6.1-11-19.6-10.1-37.1C1.78,16.6,6.68.9,11.88,1s9.8,15.7,10.4,28.2C23.08,46.6,16,60.2,12.18,66.3Z"
        fill="#1d7300" stroke="#fff" stroke-width="2" />
    </symbol>
  </defs>
  <g clip-path="url(#clip-path)">
    <g clip-path="url(#clip-path-2)">
      <use id="_7" data-name="7" width="23.34" height="67.64" transform="matrix(0.18, 0.97, 0.97, -0.18, 49.41, 49.27)"
        xlink:href="#a" />
    </g>
  </g>
  <g clip-path="url(#clip-path-3)">
    <g style="isolation:isolate">
      <g clip-path="url(#clip-path-4)">
        <use width="23.34" height="67.64" transform="matrix(0.18, -0.97, -0.97, -0.18, 63.54, 72.5)" xlink:href="#a" />
      </g>
    </g>
  </g>
  <g clip-path="url(#clip-path-5)">
    <g style="isolation:isolate">
      <g clip-path="url(#clip-path-6)">
        <use width="23.34" height="67.64" transform="matrix(0.5, 0.85, 0.85, -0.51, 46.35, 53.59)" xlink:href="#a" />
      </g>
    </g>
  </g>
  <g clip-path="url(#clip-path-7)">
    <g style="isolation:isolate">
      <g clip-path="url(#clip-path-8)">
        <use width="23.34" height="67.64" transform="matrix(0.5, -0.85, -0.85, -0.51, 59, 73.55)" xlink:href="#a" />
      </g>
    </g>
  </g>
  <g clip-path="url(#clip-path-9)">
    <g style="isolation:isolate">
      <g clip-path="url(#clip-path-10)">
        <use width="23.34" height="67.64" transform="matrix(0.83, -0.54, -0.54, -0.83, 52.99, 72.14)" xlink:href="#a" />
      </g>
    </g>
  </g>
  <g clip-path="url(#clip-path-11)">
    <g style="isolation:isolate">
      <g clip-path="url(#clip-path-12)">
        <use width="23.34" height="67.64" transform="matrix(0.82, 0.55, 0.55, -0.82, 44.86, 59.24)" xlink:href="#a" />
      </g>
    </g>
  </g>
  <g clip-path="url(#clip-path-13)">
    <g style="isolation:isolate">
      <g clip-path="url(#clip-path-14)">
        <use width="23.34" height="67.64" transform="matrix(0.99, 0, 0, -0.99, 47, 66.97)" xlink:href="#a" />
      </g>
    </g>
  </g>
</svg>