<svg xmlns="http://www.w3.org/2000/svg" xmlns:xlink="http://www.w3.org/1999/xlink" viewBox="0 0 112.69 67"><defs><symbol id="a" viewBox="0 0 23.31 67.62"><path d="M12.13,1.31a.51.51,0,0,0-.94,0C7.4,7.36.16,20.93,1.08,38.41,1.74,51,6.69,66.66,11.81,66.62s9.83-15.76,10.43-28.21C23.08,21,15.94,7.44,12.13,1.31Z" fill="#8c1e76" stroke="#fff" stroke-width="2"/></symbol></defs><use width="23.31" height="67.62" transform="translate(108.81 28.92) rotate(70.72) scale(0.99 0.99)" xlink:href="#a"/><use width="23.31" height="67.62" transform="translate(-3.58 51.52) rotate(-71.43) scale(0.99 0.99)" xlink:href="#a"/><use width="23.31" height="67.62" transform="matrix(0.62, 0.77, -0.77, 0.62, 95.51, 13.13)" xlink:href="#a"/><use width="23.31" height="67.62" transform="matrix(0.63, -0.76, 0.76, 0.63, 3.41, 30.26)" xlink:href="#a"/><use width="23.31" height="67.62" transform="matrix(0.88, -0.44, 0.44, 0.89, 19.58, 11.43)" xlink:href="#a"/><use width="23.31" height="67.62" transform="translate(72.91 1.16) rotate(26.73) scale(0.99 0.99)" xlink:href="#a"/><use width="23.31" height="67.62" transform="translate(44.92 0.01) scale(0.99 0.99)" xlink:href="#a"/></svg>