<svg xmlns="http://www.w3.org/2000/svg" xmlns:xlink="http://www.w3.org/1999/xlink" viewBox="0 0 136.35 136.54"><defs><symbol id="a" viewBox="0 0 63.81 190.26"><path d="M33.26,2.39a1.46,1.46,0,0,0-2.68,0C19.76,19.64-.89,58.37,1.73,108.26c1.89,35.93,16,80.62,30.61,80.5s28.07-45,29.78-80.5C64.51,58.47,44.14,19.87,33.26,2.39Z" fill="#8c1e76" stroke="#fff" stroke-width="3"/></symbol></defs><use width="63.81" height="190.26" transform="matrix(0.03, 0.25, -0.26, 0.05, 128.14, 72.31)" xlink:href="#a"/><use width="63.81" height="190.26" transform="matrix(0.13, 0.24, -0.25, 0.14, 121.27, 55.16)" xlink:href="#a"/><use width="63.81" height="190.26" transform="translate(99.67 38.29) rotate(35.26) scale(0.3)" xlink:href="#a"/><use width="63.81" height="190.26" transform="matrix(-0.03, 0.25, 0.26, 0.05, 23.19, 72.31)" xlink:href="#a"/><use width="63.81" height="190.26" transform="matrix(-0.13, 0.24, 0.25, 0.14, 29.24, 55.16)" xlink:href="#a"/><use width="63.81" height="190.26" transform="matrix(-0.24, 0.17, 0.17, 0.24, 51.66, 38.29)" xlink:href="#a"/><use width="63.81" height="190.26" transform="translate(65.56 32.96) scale(0.32 0.32)" xlink:href="#a"/><path d="M85,146C51.92,146,23.53,123,17.51,91.42,11.15,58.12,31.42,25,64.66,14.29l1.86,4.63c-24.41,12-38,38.44-33.06,64.38,5.29,27.75,30.27,47.89,59.4,47.89h0a63.9,63.9,0,0,0,11.92-1.13,62.07,62.07,0,0,0,38.94-24.64L148,108A69.82,69.82,0,0,1,98.5,144.67,72.27,72.27,0,0,1,85,146Z" transform="translate(-13.85 -11.91)" fill="#5e5e5e"/><path d="M65.42,16.67C40.5,28.89,25.7,56,31,83.77c5.63,29.48,32,49.92,61.86,49.92a65.68,65.68,0,0,0,12.39-1.18,64.71,64.71,0,0,0,40.5-25.63A67.73,67.73,0,0,1,98,142.21a69.14,69.14,0,0,1-13,1.24C53.64,143.45,25.88,122,20,91c-6.2-32.5,13.78-64.12,45.46-74.29m-1.53-4.76C29.46,23,8.46,57.35,15.05,91.89c6.25,32.78,35.67,56.56,70,56.56a74,74,0,0,0,14-1.33,72.32,72.32,0,0,0,51.22-37.95l-8.5-5.21a59.6,59.6,0,0,1-37.38,23.64,61.41,61.41,0,0,1-11.45,1.09c-27.93,0-51.87-19.29-56.94-45.86-4.74-24.84,8.3-50.2,31.7-61.67l-3.73-9.25Z" transform="translate(-13.85 -11.91)" fill="#fff"/><path d="M38,51.7c26.66-42.49,91.7-36.39,112,13C143.15,8.7,65-6.64,38,51.7Z" transform="translate(-13.85 -11.91)" fill="#efefef"/></svg>